<?xml version="1.0" encoding="utf-8"?>
<!-- Generator: Adobe Illustrator 27.7.0, SVG Export Plug-In . SVG Version: 6.00 Build 0)  -->
<svg version="1.1" id="Layer_2" xmlns="http://www.w3.org/2000/svg" xmlns:xlink="http://www.w3.org/1999/xlink" x="0px" y="0px"
	 viewBox="0 0 255.32 86.81" style="enable-background:new 0 0 255.32 86.81;" xml:space="preserve">
<style type="text/css">
	.st0{fill:#231F20;}
	.st1{fill:#FFFFFF;}
</style>
<path class="st0" d="M64.11,31.25H39.8c-2.31,0-4.4,0.94-5.92,2.45c-1.51,1.51-2.45,3.6-2.45,5.92v7.69c0,4.62,3.75,8.37,8.37,8.37
	h7.57v8.56H22.76V22.57H68.6c1.16,0,2.2-0.47,2.96-1.23c0.76-0.76,1.23-1.8,1.23-2.96c0-2.31-1.87-4.18-4.18-4.18H22.76
	c-2.31,0-4.4,0.94-5.92,2.45c-1.51,1.51-2.45,3.6-2.45,5.92v41.66c0,4.62,3.75,8.37,8.37,8.37h24.62c4.62,0,8.37-3.75,8.37-8.37
	V39.62h8.36v28.8c0,1.16,0.47,2.2,1.23,2.96c0.76,0.76,1.8,1.23,2.96,1.23c2.31,0,4.18-1.87,4.18-4.18v-28.8
	C72.47,35,68.72,31.25,64.11,31.25z"/>
<path class="st1" d="M43.59,38.88c-3.32,0-6.02,2.69-6.02,6.02c0,3.32,2.69,6.02,6.02,6.02c3.32,0,6.02-2.69,6.02-6.02
	C49.61,41.57,46.91,38.88,43.59,38.88z"/>
<g>
	<g>
		<path d="M95.15,65.76c-0.1-0.1-0.32-0.3-0.68-0.61c-0.36-0.31-0.68-0.65-0.97-1.01c-0.29-0.36-0.48-0.64-0.58-0.83l-8.35-36.14
			l-3.24-1.8l0.79-2.59c0.62,0,1.26,0.04,1.91,0.11c0.65,0.07,1.25,0.14,1.8,0.22c0.55,0.07,1.07,0.16,1.55,0.25
			c0.48,0.1,0.86,0.17,1.15,0.22c0.29,0.29,0.55,0.61,0.79,0.97c0.24,0.36,0.43,0.68,0.58,0.97l7.63,36.22l6.26,1.73l-3.1,3.74
			c-0.29-0.05-0.82-0.16-1.58-0.32c-0.77-0.17-1.52-0.37-2.27-0.61C96.1,66.02,95.54,65.86,95.15,65.76z M95.51,23.42h1.51
			l5.76,27.86c0.1,0.34,0.18,1.13,0.25,2.38c0.07,1.25,0.17,2.71,0.29,4.39c0.12,1.68,0.18,3.38,0.18,5.11l-1.08,0.94l-7.63-35.78
			c-0.1-0.53-0.05-1.26,0.14-2.2C95.13,25.19,95.32,24.29,95.51,23.42z M110.13,26.81l-4.54-0.79v-2.23c1.2-0.19,2.32-0.36,3.35-0.5
			c1.03-0.14,1.92-0.26,2.66-0.36c0.74-0.1,1.28-0.14,1.62-0.14c0.29,0,0.68,0.23,1.19,0.68c0.5,0.46,0.85,0.9,1.04,1.33
			l-8.86,37.58c-0.24,0.34-0.58,0.72-1.01,1.15s-0.92,0.89-1.48,1.37c-0.55,0.48-1.12,0.91-1.69,1.3c-0.58,0.38-1.15,0.72-1.73,1.01
			l1.44-3.02L110.13,26.81z"/>
		<path d="M133.89,22.99c0.38,0.24,0.77,0.6,1.15,1.08c0.38,0.48,0.67,0.94,0.86,1.37c-0.1,1.34-0.18,2.89-0.25,4.64
			c-0.07,1.75-0.11,3.55-0.11,5.4c0,1.85,0,3.61,0,5.29c0,1.58,0.01,3.26,0.04,5.04c0.02,1.78,0.05,3.54,0.07,5.29
			c0.02,1.75,0.06,3.44,0.11,5.08c0.05,1.63,0.07,3.1,0.07,4.39c-0.05,0.29-0.19,0.72-0.43,1.3c-0.24,0.58-0.62,1.32-1.15,2.23
			l-1.87,0.14c0.19-1.1,0.32-2.24,0.4-3.42c0.07-1.18,0.11-2.41,0.11-3.71c0-1.92-0.05-3.75-0.14-5.51c-0.1-1.75-0.18-3.55-0.25-5.4
			c-0.07-1.85-0.11-3.85-0.11-6.01c0-1.25,0.01-2.62,0.04-4.1c0.02-1.49,0.1-2.99,0.22-4.5c0.12-1.51,0.32-2.87,0.61-4.07
			l-0.14-0.36h-8.21l-6.48-1.15v-2.23c2.35-0.24,4.66-0.46,6.91-0.65c2.26-0.19,4.18-0.31,5.76-0.36
			C132.67,22.73,133.6,22.8,133.89,22.99z M123.16,25.44l5.18,1.22v36.65l5.9,0.79l-1.22,2.16c-0.48,0.05-1.14,0.13-1.98,0.25
			c-0.84,0.12-1.68,0.23-2.52,0.32c-0.84,0.1-1.57,0.18-2.2,0.25c-0.62,0.07-0.98,0.11-1.08,0.11c-0.1,0-0.31-0.14-0.65-0.43
			c-0.34-0.29-0.66-0.6-0.97-0.94c-0.31-0.33-0.47-0.58-0.47-0.72V25.44z"/>
		<path d="M152.75,27.89c-0.38,1.44-0.78,2.93-1.19,4.46c-0.41,1.54-0.73,3.25-0.97,5.15c-0.24,1.9-0.36,4.19-0.36,6.88
			c0,4.85,0.46,8.63,1.37,11.34c0.91,2.71,2.18,4.6,3.82,5.65c1.63,1.06,3.48,1.58,5.54,1.58l9.22-0.07v3.02
			c-0.62,0.14-1.52,0.29-2.7,0.43c-1.18,0.14-2.39,0.29-3.64,0.43c-1.25,0.14-2.35,0.25-3.31,0.32c-0.96,0.07-1.61,0.11-1.94,0.11
			c-2.54,0-4.87-0.77-6.98-2.3c-2.11-1.54-3.78-3.84-5-6.91c-1.22-3.07-1.84-6.89-1.84-11.45c0-3.17,0.2-6.06,0.61-8.68
			c0.41-2.62,0.97-4.76,1.69-6.44c0.53-0.77,1.15-1.55,1.87-2.34s1.49-1.57,2.3-2.34L152.75,27.89z M155.85,62.88V28.97
			c0-0.48,0.16-1.24,0.47-2.27c0.31-1.03,0.68-2.15,1.12-3.35h1.58v36c0,0.29-0.11,0.76-0.32,1.4c-0.22,0.65-0.54,1.36-0.97,2.12
			H155.85z M170.1,34.87h-3.1l-0.72-7.34c-0.48-0.14-1.15-0.28-2.02-0.4c-0.86-0.12-1.7-0.23-2.52-0.32
			c-0.82-0.1-1.51-0.14-2.09-0.14c-0.43,0-0.85,0.04-1.26,0.11c-0.41,0.07-0.8,0.18-1.19,0.32l0.22-3.74
			c0.38-0.19,0.73-0.33,1.04-0.43c0.31-0.1,0.59-0.14,0.83-0.14c0.58,0,1.55,0.04,2.92,0.11c1.37,0.07,2.84,0.17,4.43,0.29
			c1.58,0.12,2.98,0.25,4.18,0.4L170.1,34.87z"/>
		<path d="M179.97,26.81l-4.61-0.79v-2.23c0.48-0.1,1.12-0.2,1.91-0.32c0.79-0.12,1.61-0.23,2.45-0.32c0.84-0.1,1.58-0.18,2.23-0.25
			c0.65-0.07,1.04-0.11,1.19-0.11c0.1,0,0.31,0.14,0.65,0.43c0.34,0.29,0.65,0.61,0.94,0.97s0.43,0.61,0.43,0.76v38.38l5.9,0.79
			l-1.22,2.16c-0.48,0.05-1.14,0.13-1.98,0.25c-0.84,0.12-1.68,0.23-2.52,0.32c-0.84,0.1-1.57,0.18-2.2,0.25
			c-0.62,0.07-0.98,0.11-1.08,0.11c-0.1,0-0.31-0.14-0.65-0.43c-0.34-0.29-0.66-0.6-0.97-0.94c-0.31-0.33-0.47-0.58-0.47-0.72V26.81
			z M190.77,23.42h1.66v37.15c0,0.29-0.1,0.72-0.29,1.3c-0.19,0.58-0.55,1.32-1.08,2.23h-1.87V29.04c0-0.48,0.16-1.23,0.47-2.27
			C189.96,25.74,190.34,24.62,190.77,23.42z M189.83,42.86l7.99-0.14v3.82l-7.99-0.65V42.86z M204.38,65.62
			c-0.91-1.63-1.94-3.6-3.1-5.9c-1.15-2.3-2.29-4.73-3.42-7.27c-1.13-2.54-2.17-4.92-3.13-7.13l0.72-1.73l6.26-16.78l-3.74-0.79
			v-2.23c0.58-0.14,1.44-0.29,2.59-0.43s2.24-0.28,3.28-0.4c1.03-0.12,1.64-0.18,1.84-0.18c0.14,0,0.38,0.14,0.72,0.43
			c0.34,0.29,0.65,0.61,0.94,0.97s0.43,0.61,0.43,0.76l-8.28,18.79c0.62,1.49,1.36,3.12,2.2,4.9c0.84,1.78,1.7,3.56,2.59,5.36
			c0.89,1.8,1.78,3.49,2.66,5.08c0.89,1.58,1.67,2.95,2.34,4.1l3.89,0.94l-0.36,2.74c-0.72,0.05-1.55,0.05-2.48,0
			c-0.94-0.05-1.84-0.12-2.7-0.22c-0.86-0.1-1.6-0.23-2.2-0.4C204.82,66.06,204.47,65.86,204.38,65.62z"/>
		<path d="M223.67,63.02c-0.1-0.1-0.32-0.3-0.68-0.61c-0.36-0.31-0.68-0.65-0.97-1.01s-0.48-0.64-0.58-0.83l-7.99-33.41l-3.24-1.8
			l0.79-2.59c0.86,0,1.72,0.05,2.56,0.14c0.84,0.1,1.61,0.2,2.3,0.32c0.7,0.12,1.24,0.23,1.62,0.32c0.24,0.29,0.49,0.61,0.76,0.97
			c0.26,0.36,0.44,0.68,0.54,0.97l7.27,33.48l5.54,1.73l-1.73,3.89c-0.34-0.05-0.94-0.18-1.8-0.4c-0.86-0.22-1.72-0.44-2.56-0.68
			C224.67,63.29,224.05,63.12,223.67,63.02z M224.61,23.42h1.51l5.18,24.98c0.05,0.29,0.12,1.03,0.22,2.23
			c0.1,1.2,0.2,2.64,0.32,4.32c0.12,1.68,0.23,3.46,0.32,5.33l-1.3,1.01l-6.98-32.98c-0.1-0.53-0.05-1.26,0.14-2.2
			C224.22,25.19,224.41,24.29,224.61,23.42z M237.57,26.81l-4.54-0.79v-2.23c0.91-0.14,1.78-0.28,2.59-0.4
			c0.82-0.12,1.55-0.23,2.2-0.32c0.65-0.1,1.22-0.17,1.73-0.22c0.5-0.05,0.88-0.07,1.12-0.07c0.34,0,0.74,0.23,1.22,0.68
			c0.48,0.46,0.82,0.9,1.01,1.33l-9,34.85l-3.46,17.21l4.03,0.86l-0.07,2.81c-0.53,0.05-1.2,0.13-2.02,0.25
			c-0.82,0.12-1.66,0.22-2.52,0.29c-0.86,0.07-1.61,0.14-2.23,0.22c-0.62,0.07-1.01,0.11-1.15,0.11c-0.1,0-0.31-0.19-0.65-0.58
			c-0.34-0.38-0.65-0.79-0.94-1.22c-0.29-0.43-0.43-0.72-0.43-0.86l5.54-17.28L237.57,26.81z"/>
	</g>
</g>
</svg>
