<?xml version="1.0" encoding="utf-8"?>
<!-- Generator: Adobe Illustrator 27.1.0, SVG Export Plug-In . SVG Version: 6.00 Build 0)  -->
<svg version="1.1" id="Layer_1" xmlns="http://www.w3.org/2000/svg" xmlns:xlink="http://www.w3.org/1999/xlink" x="0px" y="0px"
	 viewBox="0 0 110 38" style="enable-background:new 0 0 110 38;" xml:space="preserve">
<style type="text/css">
	.st0{fill:#ED2869;}
	.st1{fill:#AA1E5F;}
</style>
<g>
	<path class="st0" d="M40.71,10.43c-0.14,0-0.27,0.09-0.31,0.23L36.78,21.6l-3.62-10.94c-0.04-0.14-0.17-0.23-0.31-0.23h-5.18
		c-0.23,0-0.39,0.23-0.31,0.45l6.32,16.95c0.05,0.13,0.17,0.21,0.31,0.21h5.23c0.34,0,0.65-0.21,0.77-0.54l6.2-16.63
		c0.08-0.22-0.08-0.45-0.31-0.45H40.71z"/>
	<path class="st0" d="M60.85,10.43c-0.18,0-0.33,0.15-0.33,0.33v1.32c-1.17-1.34-2.91-2.15-5.29-2.15c-4.65,0-8.48,4.05-8.48,9.3
		c0,5.25,3.83,9.3,8.48,9.3c2.38,0,4.12-0.81,5.29-2.15v1.32c0,0.18,0.15,0.33,0.33,0.33h4.66c0.18,0,0.33-0.15,0.33-0.33V10.76
		c0-0.18-0.15-0.33-0.33-0.33H60.85z M56.29,23.53c-2.45,0-4.22-1.66-4.22-4.3c0-2.64,1.77-4.3,4.22-4.3c2.45,0,4.22,1.66,4.22,4.3
		C60.52,21.88,58.74,23.53,56.29,23.53z"/>
	<path class="st0" d="M72.6,8.88c1.74,0,3.2-1.44,3.2-3.17s-1.46-3.17-3.2-3.17c-1.74,0-3.2,1.44-3.2,3.17S70.86,8.88,72.6,8.88z
		 M69.93,28.04c0,1.75-0.78,2.48-2.49,2.48c-0.19,0-0.35,0.15-0.35,0.34v4.41c0,0.18,0.14,0.32,0.31,0.33
		c5.39,0.21,7.85-2.16,7.85-7.55V10.76c0-0.18-0.15-0.33-0.33-0.33h-4.66c-0.18,0-0.33,0.15-0.33,0.33V28.04z"/>
	<path class="st0" d="M84.5,13.56v-2.8c0-0.18-0.15-0.33-0.33-0.33h-4.66c-0.18,0-0.33,0.15-0.33,0.33v16.95
		c0,0.18,0.15,0.33,0.33,0.33h4.66c0.18,0,0.33-0.15,0.33-0.33v-7.63c0-3.29,2.78-4.26,4.94-4.06c0.2,0.02,0.38-0.14,0.38-0.34
		v-5.27c0-0.18-0.15-0.33-0.33-0.32C87.36,10.19,85.18,11.32,84.5,13.56z"/>
	<path class="st0" d="M100.32,28.54c5.22,0,9.41-4.05,9.41-9.3c0-5.25-4.19-9.3-9.41-9.3c-5.22,0-9.41,4.05-9.41,9.3
		C90.91,24.48,95.1,28.54,100.32,28.54z M100.32,23.39c-2.31,0-4.08-1.66-4.08-4.16c0-2.5,1.78-4.16,4.08-4.16
		c2.31,0,4.08,1.66,4.08,4.16C104.4,21.74,102.62,23.39,100.32,23.39z"/>
	<g>
		<g>
			<path class="st0" d="M15.68,16.03l-2.72,5.65H7.39L15.68,16.03z"/>
			<path class="st1" d="M12.96,21.68l-1.43-2.83l4.14-2.83L12.96,21.68z"/>
			<path class="st0" d="M18.71,9.49l-2.73,5.66H10.4L18.71,9.49z"/>
			<path class="st1" d="M15.99,15.15l-1.44-2.82l4.17-2.84L15.99,15.15z"/>
			<path class="st0" d="M22.09,2.39l-2.73,5.65h-5.58L22.09,2.39z"/>
			<path class="st1" d="M19.37,8.04l-1.43-2.83l4.16-2.83L19.37,8.04z"/>
			<path class="st0" d="M11.94,9.25L9.22,14.9H3.63L11.94,9.25z"/>
			<path class="st1" d="M9.22,14.9l-1.44-2.82l4.16-2.83L9.22,14.9z"/>
			<path class="st0" d="M10.83,13.6l2.1-4.35h4.31L10.83,13.6z"/>
			<path class="st1" d="M12.92,9.25l1.1,2.18l-3.2,2.18L12.92,9.25z"/>
			<path class="st0" d="M0.28,20.55l2.11-4.36h4.3L0.28,20.55z"/>
			<path class="st1" d="M2.38,16.19l1.1,2.17l-3.21,2.19L2.38,16.19z"/>
			<path class="st0" d="M8.72,16.03L6,21.67H0.41L8.72,16.03z"/>
			<path class="st1" d="M6,21.68l-1.43-2.83l4.15-2.83L6,21.68z"/>
			<path class="st0" d="M7.37,21.68l2.72-5.66h5.59L7.37,21.68z"/>
			<path class="st1" d="M10.1,16.03l1.43,2.83l-4.15,2.82L10.1,16.03z"/>
			<path class="st0" d="M4.35,28.2l2.72-5.66h5.59L4.35,28.2z"/>
			<path class="st1" d="M7.07,22.55l1.43,2.82L4.35,28.2L7.07,22.55z"/>
			<path class="st0" d="M0.96,35.34l2.72-5.67h5.59L0.96,35.34z"/>
			<path class="st1" d="M3.68,29.67l1.43,2.83l-4.15,2.85L3.68,29.67z"/>
			<path class="st0" d="M11.11,28.46l2.73-5.66h5.58L11.11,28.46z"/>
			<path class="st1" d="M13.84,22.8l1.43,2.83l-4.16,2.83L13.84,22.8z"/>
			<path class="st0" d="M12.22,24.11l-2.09,4.35H5.82L12.22,24.11z"/>
			<path class="st1" d="M10.13,28.46l-1.1-2.18l3.19-2.18L10.13,28.46z"/>
			<path class="st0" d="M22.78,17.16l-2.1,4.35h-4.31L22.78,17.16z"/>
			<path class="st1" d="M20.67,21.52l-1.11-2.17l3.2-2.19L20.67,21.52z"/>
			<path class="st0" d="M14.33,21.68l2.73-5.66h5.58L14.33,21.68z"/>
			<path class="st1" d="M17.06,16.03l1.43,2.84l-4.16,2.82L17.06,16.03z"/>
		</g>
	</g>
</g>
</svg>
